<?xml version="1.0" standalone="no"?>
<!DOCTYPE svg PUBLIC "-//W3C//DTD SVG 20010904//EN"
 "http://www.w3.org/TR/2001/REC-SVG-20010904/DTD/svg10.dtd">
<svg version="1.0" xmlns="http://www.w3.org/2000/svg"
 width="472.000000pt" height="472.000000pt" viewBox="0 0 472.000000 472.000000"
 preserveAspectRatio="xMidYMid meet">
<metadata>
Created by potrace 1.11, written by Peter Selinger 2001-2013
</metadata>
<g transform="translate(0.000000,472.000000) scale(0.100000,-0.100000)"
fill="#000000" stroke="none">
<path d="M1142 3290 l-752 -749 0 -239 0 -240 734 -734 c403 -403 743 -741
755 -752 20 -19 21 -18 256 216 129 129 235 239 235 244 0 5 -281 290 -625
634 -344 344 -625 628 -625 632 0 3 283 288 628 633 l629 626 -238 239 c-131
132 -240 240 -241 240 -2 0 -342 -338 -756 -750z"/>
<path d="M3499 4013 c-9 -10 -244 -245 -523 -523 l-506 -504 0 -190 0 -190
405 -404 405 -404 -377 -380 c-208 -208 -380 -381 -381 -383 -3 -3 334 -341
447 -449 l30 -29 523 527 523 527 0 189 0 190 -404 404 -404 404 380 379 380
378 -236 238 c-130 130 -238 237 -241 237 -3 0 -13 -8 -21 -17z"/>
</g>
</svg>
